<svg width="2755" height="660" xmlns="http://www.w3.org/2000/svg" xmlns:xlink="http://www.w3.org/1999/xlink" xml:space="preserve" overflow="hidden"><g transform="translate(-719 -1384)"><g><path d="M1398 1700.5C1398 1532.88 1533.88 1397 1701.5 1397 1869.12 1397 2005 1532.88 2005 1700.5 2005 1868.12 1869.12 2004 1701.5 2004 1533.88 2004 1398 1868.12 1398 1700.5Z" fill="#FFFFFF" fill-rule="evenodd" fill-opacity="1"/><g><g><g><path d="M938.776 383.515C871.206 327.209 787.271 310.836 672.448 313.482 672.448 313.752 672.417 314.009 672.417 314.28 672.417 482.486 808.753 618.849 976.962 618.849 1097.41 618.849 1201.48 548.922 1250.89 447.466 1118.33 472.748 1025.33 455.659 938.776 383.515Z" fill="#00B1FF" fill-rule="nonzero" fill-opacity="1" transform="matrix(1.00239 0 0 1 722.079 1386)"/><path d="M1010.41 285.637C932.293 220.545 832.342 208.757 687.988 218.156 684.393 228.984 681.344 240.046 678.955 251.357 815.345 222.731 916.948 236.811 998.458 302.348 1074.98 363.874 1160.21 390.522 1272.15 389.47 1274.87 378.731 1276.97 367.756 1278.52 356.589 1168.76 370.227 1087.06 349.519 1010.41 285.637Z" fill="#00B1FF" fill-rule="nonzero" fill-opacity="1" transform="matrix(1.00239 0 0 1 722.079 1386)"/><path d="M974.591 333.38C900.956 272.016 807.899 258.032 676.546 264.491 674.85 274.771 673.675 285.226 673.041 295.821 794.556 275.258 887.212 291.832 962.656 352.494 1043.33 417.343 1133.62 443.491 1254.7 439.229 1260.34 426.738 1265.15 413.813 1269.07 400.501 1145.79 420.968 1057.26 402.272 974.591 333.38Z" fill="#00B1FF" fill-rule="nonzero" fill-opacity="1" transform="matrix(1.00239 0 0 1 722.079 1386)"/><path d="M1034.28 254.595C1104.36 310.949 1181.75 338.037 1280.25 341.395 1281.04 332.458 1281.52 323.432 1281.52 314.283 1281.52 146.074 1145.19 9.71106 976.962 9.71106 845.808 9.71106 734.049 92.6217 691.164 208.884 839.565 173.497 948.124 185.333 1034.28 254.595Z" fill="#00B1FF" fill-rule="nonzero" fill-opacity="1" transform="matrix(1.00239 0 0 1 722.079 1386)"/><path d="M51.8038 505.105 51.8038 157.255C51.8038 139.19 55.9123 125.63 64.1533 116.598 72.3841 107.562 83.0238 103.049 96.0758 103.049 109.525 103.049 120.419 107.521 128.752 116.447 137.082 125.384 141.246 138.987 141.246 157.255L141.246 505.109C141.246 523.383 137.075 537.028 128.752 546.064 120.415 555.103 109.525 559.616 96.0758 559.616 83.2259 559.616 72.6274 555.049 64.3041 545.913 55.9705 536.778 51.8038 523.174 51.8038 505.105Z" fill="#FFFFFF" fill-rule="nonzero" fill-opacity="1" transform="matrix(1.00239 0 0 1 722.079 1386)"/><path d="M357.791 156.652 529.76 416.863 529.76 154.243C529.76 137.182 533.42 124.38 540.753 115.844 548.082 107.312 557.965 103.049 570.417 103.049 583.263 103.049 593.406 107.315 600.835 115.844 608.261 124.38 611.979 137.185 611.979 154.243L611.979 501.49C611.979 540.245 595.914 559.616 563.793 559.616 555.758 559.616 548.535 558.458 542.11 556.152 535.681 553.842 529.654 550.179 524.041 545.159 518.418 540.143 513.199 534.269 508.381 527.54 503.567 520.817 498.746 513.936 493.924 506.908L326.17 249.712 326.17 508.416C326.17 525.281 322.254 538.035 314.424 546.664 306.594 555.292 296.551 559.609 284.307 559.609 271.66 559.609 261.52 555.247 253.889 546.513 246.255 537.775 242.444 525.079 242.444 508.416L242.444 167.795C242.444 153.338 244.051 141.999 247.262 133.762 251.069 124.722 257.398 117.348 266.232 111.626 275.066 105.903 284.602 103.039 294.848 103.039 302.876 103.039 309.757 104.351 315.479 106.959 321.202 109.57 326.222 113.086 330.543 117.499 334.86 121.919 339.277 127.638 343.794 134.666 348.303 141.698 352.973 149.024 357.791 156.652Z" fill="#FFFFFF" fill-rule="nonzero" fill-opacity="1" transform="matrix(1.00239 0 0 1 722.079 1386)"/><path d="M1661.52 482.514 1590.14 217.786 1517.86 482.514C1512.24 502.594 1507.77 516.996 1504.46 525.73 1501.14 534.465 1495.38 542.295 1487.14 549.22 1478.91 556.145 1467.96 559.606 1454.32 559.606 1443.27 559.606 1434.18 557.543 1427.06 553.431 1419.93 549.319 1414.15 543.494 1409.74 535.962 1405.32 528.434 1401.71 519.497 1398.9 509.159 1396.09 498.821 1393.58 489.237 1391.37 480.393L1317.89 183.153C1313.47 165.886 1311.26 152.735 1311.26 143.696 1311.26 132.251 1315.28 122.618 1323.31 114.782 1331.34 106.952 1341.27 103.032 1353.12 103.032 1369.39 103.032 1380.32 108.254 1385.95 118.692 1391.57 129.132 1396.49 144.292 1400.71 164.166L1458.53 421.962 1523.28 180.731C1528.1 162.258 1532.42 148.205 1536.23 138.563 1540.04 128.927 1546.27 120.6 1554.9 113.565 1563.53 106.541 1575.28 103.025 1590.14 103.025 1605.2 103.025 1616.89 106.691 1625.22 114.018 1633.55 121.354 1639.32 129.335 1642.54 137.959 1645.75 146.598 1650.06 160.849 1655.49 180.724L1720.84 421.955 1778.66 164.159C1781.47 150.706 1784.13 140.17 1786.64 132.535 1789.15 124.907 1793.47 118.078 1799.59 112.054 1805.72 106.027 1814.6 103.015 1826.24 103.015 1837.88 103.015 1847.77 106.883 1855.91 114.614 1864.04 122.344 1868.11 132.035 1868.11 143.672 1868.11 151.906 1865.89 165.054 1861.48 183.126L1788 480.379C1782.97 500.459 1778.81 515.163 1775.5 524.5 1772.19 533.841 1766.57 542.021 1758.63 549.045 1750.7 556.073 1739.51 559.585 1725.05 559.585 1711.4 559.585 1700.45 556.169 1692.23 549.347 1683.99 542.528 1678.27 534.849 1675.06 526.306 1671.86 517.805 1667.34 503.197 1661.52 482.514Z" fill="#FFFFFF" fill-rule="nonzero" fill-opacity="1" transform="matrix(1.00239 0 0 1 722.079 1386)"/><path d="M2209.95 502.09 2188.87 446.675 2009.37 446.675 1988.29 503.293C1980.06 525.381 1973.03 540.29 1967.21 548.017 1961.39 555.744 1951.85 559.613 1938.6 559.613 1927.35 559.613 1917.41 555.494 1908.79 547.263 1900.15 539.032 1895.84 529.698 1895.84 519.254 1895.84 513.227 1896.84 507.011 1898.85 500.582 1900.85 494.157 1904.17 485.224 1908.79 473.779L2021.72 187.066C2024.93 178.836 2028.8 168.95 2033.32 157.402 2037.84 145.858 2042.66 136.274 2047.78 128.639 2052.9 121.008 2059.62 114.837 2067.96 110.118 2076.29 105.403 2086.58 103.042 2098.83 103.042 2111.28 103.042 2121.67 105.403 2130 110.118 2138.33 114.837 2145.07 120.912 2150.18 128.337 2155.3 135.766 2159.62 143.75 2163.13 152.276 2166.64 160.812 2171.11 172.205 2176.53 186.463L2291.88 471.37C2300.92 493.054 2305.43 508.823 2305.43 518.654 2305.43 528.893 2301.17 538.285 2292.63 546.818 2284.1 555.347 2273.81 559.613 2261.76 559.613 2254.73 559.613 2248.7 558.355 2243.69 555.847 2238.67 553.335 2234.46 549.922 2231.05 545.608 2227.63 541.294 2223.97 534.67 2220.06 525.73 2216.12 516.801 2212.76 508.919 2209.95 502.09ZM2032.86 379.516 2164.77 379.516 2098.21 197.309 2032.86 379.516Z" fill="#FFFFFF" fill-rule="nonzero" fill-opacity="1" transform="matrix(1.00239 0 0 1 722.079 1386)"/><path d="M2706.57 419.57C2706.57 446.274 2699.69 470.274 2685.94 491.553 2672.18 512.836 2652.06 529.496 2625.56 541.548 2599.06 553.596 2567.63 559.613 2531.29 559.613 2487.72 559.613 2451.78 551.385 2423.47 534.917 2403.4 523.071 2387.07 507.264 2374.53 487.482 2361.98 467.707 2355.71 448.48 2355.71 429.809 2355.71 418.967 2359.48 409.681 2367 401.95 2374.53 394.223 2384.12 390.355 2395.77 390.355 2405.21 390.355 2413.19 393.367 2419.71 399.391 2426.23 405.415 2431.8 414.351 2436.42 426.194 2442.04 440.25 2448.12 451.996 2454.64 461.43 2461.16 470.87 2470.35 478.645 2482.2 484.772 2494.05 490.899 2509.61 493.959 2528.88 493.959 2555.38 493.959 2576.92 487.784 2593.48 475.441 2610.05 463.092 2618.33 447.682 2618.33 429.212 2618.33 414.56 2613.86 402.663 2604.93 393.524 2596 384.389 2584.45 377.412 2570.3 372.594 2556.15 367.78 2537.22 362.661 2513.53 357.24 2481.8 349.814 2455.25 341.128 2433.87 331.184 2412.49 321.246 2395.52 307.697 2382.97 290.53 2370.42 273.359 2364.15 252.032 2364.15 226.527 2364.15 202.236 2370.78 180.652 2384.03 161.778 2397.28 142.908 2416.45 128.399 2441.55 118.26 2466.65 108.124 2496.16 103.052 2530.09 103.052 2557.2 103.052 2580.64 106.414 2600.42 113.137 2620.19 119.867 2636.6 128.797 2649.66 139.94 2662.71 151.083 2672.25 162.782 2678.27 175.025 2684.29 187.272 2687.31 199.224 2687.31 210.864 2687.31 221.504 2683.54 231.092 2676.01 239.627 2668.48 248.163 2659.09 252.426 2647.85 252.426 2637.61 252.426 2629.83 249.866 2624.51 244.747 2619.19 239.627 2613.42 231.246 2607.19 219.599 2599.16 202.935 2589.52 189.935 2578.28 180.597 2567.03 171.256 2548.96 166.592 2524.07 166.592 2500.98 166.592 2482.36 171.66 2468.2 181.8 2454.04 191.939 2446.97 204.141 2446.97 218.393 2446.97 227.23 2449.38 234.861 2454.19 241.286 2459.01 247.714 2465.64 253.231 2474.07 257.85 2482.51 262.473 2491.04 266.081 2499.67 268.692 2508.31 271.303 2522.56 275.12 2542.44 280.137 2567.33 285.962 2589.87 292.387 2610.04 299.412 2630.22 306.443 2647.39 314.976 2661.54 325.012 2675.7 335.056 2686.74 347.751 2694.67 363.109 2702.6 378.464 2706.57 397.283 2706.57 419.57Z" fill="#FFFFFF" fill-rule="nonzero" fill-opacity="1" transform="matrix(1.00239 0 0 1 722.079 1386)"/></g></g></g></g></g></svg>