<?xml version="1.0" standalone="no"?>
<!DOCTYPE svg PUBLIC "-//W3C//DTD SVG 20010904//EN"
 "http://www.w3.org/TR/2001/REC-SVG-20010904/DTD/svg10.dtd">
<svg version="1.0" xmlns="http://www.w3.org/2000/svg"
 width="140.000000pt" height="140.000000pt" viewBox="0 0 140.000000 140.000000"
 preserveAspectRatio="xMidYMid meet">
<metadata>
Created by potrace 1.14, written by Peter Selinger 2001-2017
</metadata>
<g transform="translate(0.000000,140.000000) scale(0.100000,-0.100000)"
fill="#000000" stroke="none">
<path d="M604 1349 c-71 -12 -173 -50 -240 -90 -104 -63 -216 -189 -259 -292
l-16 -38 33 6 c18 3 44 7 58 9 14 2 40 6 57 10 18 4 79 9 136 11 92 3 148 -4
266 -30 42 -10 124 -56 207 -116 151 -108 304 -166 455 -172 l74 -2 -1 55 c-3
319 -220 579 -539 646 -42 9 -182 11 -231 3z"/>
<path d="M83 898 c-16 -19 -20 -63 -6 -61 249 47 447 29 590 -53 23 -14 80
-51 125 -84 147 -106 303 -157 496 -164 57 -3 65 0 72 18 15 41 6 51 -41 47
-113 -9 -225 2 -305 29 -62 22 -163 74 -191 98 -99 90 -208 141 -353 167 -103
18 -373 20 -387 3z"/>
<path d="M59 806 c0 0 -3 -16 -6 -34 l-4 -34 63 8 c237 28 403 -10 567 -131
180 -133 326 -182 560 -189 l80 -3 15 44 15 44 -42 -7 c-74 -12 -208 -11 -282
2 -115 20 -246 82 -322 153 -56 53 -212 118 -328 137 -33 5 -313 14 -316 10z"/>
<path d="M53 639 c9 -119 36 -196 102 -299 248 -386 813 -405 1089 -36 20 27
43 61 51 76 l14 27 -52 -9 c-29 -5 -106 -10 -172 -10 -177 -2 -293 37 -440
146 -38 29 -86 61 -105 73 -35 21 -180 76 -180 68 0 -2 -15 1 -32 6 -18 5 -89
12 -157 16 l-124 6 6 -64z"/>
</g>
</svg>
